<svg xmlns="http://www.w3.org/2000/svg" xmlns:xlink="http://www.w3.org/1999/xlink" width="0" height="0" style="display:none;"><symbol viewBox="0 0 24 24" id="bookmark-line"><path d="M5 2H19C19.5523 2 20 2.44772 20 3V22.1433C20 22.4194 19.7761 22.6434 19.5 22.6434C19.4061 22.6434 19.314 22.6168 19.2344 22.5669L12 18.0313L4.76559 22.5669C4.53163 22.7136 4.22306 22.6429 4.07637 22.4089C4.02647 22.3293 4 22.2373 4 22.1433V3C4 2.44772 4.44772 2 5 2ZM18 4H6V19.4324L12 15.6707L18 19.4324V4Z"></path></symbol><symbol viewBox="0 0 24 24" id="bookmark-fill"><path d="M5 2H19C19.5523 2 20 2.44772 20 3V22.1433C20 22.4194 19.7761 22.6434 19.5 22.6434C19.4061 22.6434 19.314 22.6168 19.2344 22.5669L12 18.0313L4.76559 22.5669C4.53163 22.7136 4.22306 22.6429 4.07637 22.4089C4.02647 22.3293 4 22.2373 4 22.1433V3C4 2.44772 4.44772 2 5 2Z"></path></symbol><symbol viewBox="0 0 24 24" id="html5-fill"><path d="M12 18.1778L16.6192 16.9222L17.2434 10.1444H9.02648L8.82219 7.88889H17.4477L17.6747 5.67778H6.32535L6.96091 12.3556H14.7806L14.5195 15.2222L12 15.8889L9.48045 15.2222L9.32156 13.3778H7.0517L7.38083 16.9222L12 18.1778ZM3 2H21L19.377 20L12 22L4.62295 20L3 2Z"></path></symbol><symbol viewBox="0 0 24 24" id="css3-fill"><path d="M5.00006 3L4.35006 6.34H17.9401L17.5001 8.5H3.92006L3.26006 11.83H16.8501L16.0901 15.64L10.6101 17.45L5.86006 15.64L6.19006 14H2.85006L2.06006 18L9.91006 21L18.9601 18L20.1601 11.97L20.4001 10.76L21.9401 3H5.00006Z"></path></symbol><symbol viewBox="0 0 24 24" id="javascript-fill"><path d="M6 3C4.34315 3 3 4.34315 3 6V18C3 19.6569 4.34315 21 6 21H18C19.6569 21 21 19.6569 21 18V6C21 4.34315 19.6569 3 18 3H6ZM13.3344 16.055C14.0531 16.6343 14.7717 16.9203 15.4904 16.913C15.9304 16.913 16.2677 16.8323 16.5024 16.671C16.7297 16.517 16.8434 16.297 16.8434 16.011C16.8434 15.7177 16.7297 15.4683 16.5024 15.263C16.2677 15.0577 15.8241 14.8523 15.1714 14.647C14.3867 14.4197 13.7817 14.1263 13.3564 13.767C12.9384 13.4077 12.7257 12.9053 12.7184 12.26C12.7184 11.6513 12.9824 11.1417 13.5104 10.731C14.0237 10.3203 14.6801 10.115 15.4794 10.115C16.5941 10.115 17.4887 10.3863 18.1634 10.929L17.3934 12.128C17.1221 11.9153 16.8104 11.7613 16.4584 11.666C16.1064 11.556 15.7911 11.501 15.5124 11.501C15.1311 11.501 14.8267 11.5707 14.5994 11.71C14.3721 11.8493 14.2584 12.0327 14.2584 12.26C14.2584 12.5093 14.3977 12.722 14.6764 12.898C14.9551 13.0667 15.4317 13.2537 16.1064 13.459C16.9204 13.701 17.4997 14.0237 17.8444 14.427C18.1891 14.8303 18.3614 15.3437 18.3614 15.967C18.3614 16.605 18.1157 17.155 17.6244 17.617C17.1404 18.0717 16.4364 18.31 15.5124 18.332C14.3024 18.332 13.2904 17.969 12.4764 17.243L13.3344 16.055ZM7.80405 16.693C8.03872 16.8397 8.32105 16.913 8.65105 16.913C8.99572 16.913 9.28172 16.814 9.50905 16.616C9.73639 16.4107 9.85005 16.055 9.85005 15.549V10.247H11.3351V15.835C11.3131 16.7003 11.0637 17.3237 10.5871 17.705C10.3157 17.9323 10.0187 18.0937 9.69605 18.189C9.37339 18.2843 9.06172 18.332 8.76105 18.332C8.21105 18.332 7.72339 18.2367 7.29805 18.046C6.84339 17.8407 6.46205 17.4777 6.15405 16.957L7.18805 16.11C7.37872 16.3667 7.58405 16.561 7.80405 16.693Z"></path></symbol><symbol viewBox="0 0 24 24" id="html5-line"><path d="M12 18.1778L7.38083 16.9222L7.0517 13.3778H9.32156L9.48045 15.2222L12 15.8889L14.5195 15.2222L14.7806 12.3556H6.96091L6.32535 5.67778H17.6747L17.4477 7.88889H8.82219L9.02648 10.1444H17.2434L16.6192 16.9222L12 18.1778ZM3 2H21L19.377 20L12 22L4.62295 20L3 2ZM5.18844 4L6.48986 18.4339L12 19.9278L17.5101 18.4339L18.8116 4H5.18844Z"></path></symbol><symbol viewBox="0 0 24 24" id="css3-line"><path d="M2.8 14H4.83961L4.2947 16.7245L10.0393 18.8787L17.2665 16.4697L18.3604 11H3.4L3.8 9H18.7604L19.5604 5H4.6L5 3H22L19 18L10 21L2 18L2.8 14Z"></path></symbol><symbol viewBox="0 0 24 24" id="javascript-line"><path d="M13.3344 16.055 12.4764 17.243C13.2904 17.969 14.3024 18.332 15.5124 18.332 16.4364 18.31 17.1404 18.0717 17.6244 17.617 18.1157 17.155 18.3614 16.605 18.3614 15.967 18.3614 15.3437 18.1891 14.8303 17.8444 14.427 17.4997 14.0237 16.9204 13.701 16.1064 13.459 15.4317 13.2537 14.9551 13.0667 14.6764 12.898 14.3977 12.722 14.2584 12.5093 14.2584 12.26 14.2584 12.0327 14.3721 11.8493 14.5994 11.71 14.8267 11.5707 15.1311 11.501 15.5124 11.501 15.7911 11.501 16.1064 11.556 16.4584 11.666 16.8104 11.7613 17.1221 11.9153 17.3934 12.128L18.1634 10.929C17.4887 10.3863 16.5941 10.115 15.4794 10.115 14.6801 10.115 14.0237 10.3203 13.5104 10.731 12.9824 11.1417 12.7184 11.6513 12.7184 12.26 12.7257 12.9053 12.9384 13.4077 13.3564 13.767 13.7817 14.1263 14.3867 14.4197 15.1714 14.647 15.8241 14.8523 16.2677 15.0577 16.5024 15.263 16.7297 15.4683 16.8434 15.7177 16.8434 16.011 16.8434 16.297 16.7297 16.517 16.5024 16.671 16.2677 16.8323 15.9304 16.913 15.4904 16.913 14.7717 16.9203 14.0531 16.6343 13.3344 16.055ZM7.80405 16.693C7.58405 16.561 7.37872 16.3667 7.18805 16.11L6.15405 16.957C6.46205 17.4777 6.84339 17.8407 7.29805 18.046 7.72339 18.2367 8.21105 18.332 8.76105 18.332 9.06172 18.332 9.37339 18.2843 9.69605 18.189 10.0187 18.0937 10.3157 17.9323 10.5871 17.705 11.0637 17.3237 11.3131 16.7003 11.3351 15.835V10.247H9.85005V15.549C9.85005 16.055 9.73639 16.4107 9.50905 16.616 9.28172 16.814 8.99572 16.913 8.65105 16.913 8.32105 16.913 8.03872 16.8397 7.80405 16.693ZM3 6C3 4.34315 4.34315 3 6 3H18C19.6569 3 21 4.34315 21 6V18C21 19.6569 19.6569 21 18 21H6C4.34315 21 3 19.6569 3 18V6ZM6 5C5.44772 5 5 5.44772 5 6V18C5 18.5523 5.44772 19 6 19H18C18.5523 19 19 18.5523 19 18V6C19 5.44772 18.5523 5 18 5H6Z"></path></symbol><symbol viewBox="0 0 24 24" id="bread-line"><path d="M5 3C2.79086 3 1 4.79086 1 7C1 8.48168 1.8052 9.77343 3 10.4646V19C3 20.6569 4.34315 22 6 22H18C19.6569 22 21 20.6569 21 19V10.4646C22.1948 9.77343 23 8.48168 23 7C23 4.79086 21.2091 3 19 3H5ZM7 20C6.44772 20 6 19.5523 6 19V9.12212L5.33325 8.88645C4.5551 8.61142 4 7.86925 4 7C4 5.89543 4.89543 5 6 5H19C20.1046 5 21 5.89543 21 7C21 7.86925 20.4449 8.61142 19.6668 8.88645L19 9.12212V19C19 19.5523 18.5523 20 18 20H7Z"></path></symbol><symbol viewBox="0 0 24 24" id="bread-fill"><path d="M1 7C1 4.79086 2.79086 3 5 3H7C4.79086 3 3 4.79086 3 7C3 8.48168 3.8052 9.77343 5 10.4646V19C5 20.6569 6.34315 22 8 22H6C4.34315 22 3 20.6569 3 19V10.4646C1.8052 9.77343 1 8.48168 1 7ZM8 22V20C7.44772 20 7 19.5523 7 19V9.12212L6.33325 8.88645C5.5551 8.61142 5 7.86925 5 7C5 5.89543 5.89543 5 7 5V3H19C21.2091 3 23 4.79086 23 7C23 8.48168 22.1948 9.77343 21 10.4646V19C21 20.6569 19.6569 22 18 22H8Z"></path></symbol><symbol viewBox="0 0 24 24" id="hearts-line"><path d="M19.2426 4.75736C20.705 6.2228 21.2547 8.25005 20.8924 10.1368C21.4614 10.2972 21.9987 10.6002 22.4471 11.0453C23.851 12.439 23.851 14.6987 22.4471 16.0924L17 21.5L13.978 18.5L10.9999 21.485L2.52138 12.993C0.417048 10.637 0.495706 7.01901 2.75736 4.75736C5.02157 2.49315 8.64519 2.41687 11.001 4.52853C13.35 2.42 16.98 2.49 19.2426 4.75736ZM12.962 12.4646C12.346 13.0761 12.346 14.0615 12.962 14.673L17 18.6818L21.038 14.673C21.654 14.0615 21.654 13.0761 21.038 12.4646C20.414 11.8451 19.3962 11.8451 18.77 12.4668L16.9979 14.2206L15.591 12.825L15.2278 12.4646C14.6038 11.8451 13.586 11.8451 12.962 12.4646ZM4.17157 6.17157C2.68183 7.66131 2.60704 10.0473 3.97993 11.6232L10.9999 18.6543L12.559 17.092L11.5529 16.0924C10.149 14.6987 10.149 12.439 11.5529 11.0453C12.9568 9.65157 15.233 9.65157 16.6369 11.0453L16.9996 11.4051L17.3631 11.0453C17.7877 10.6238 18.2921 10.3297 18.828 10.1632C19.2436 8.79577 18.9058 7.25122 17.827 6.1701C16.3279 4.66794 13.9076 4.60701 12.337 6.01687L11.0019 7.21524L9.66605 6.01781C8.09098 4.60597 5.67506 4.66808 4.17157 6.17157Z"></path></symbol><symbol viewBox="0 0 24 24" id="hearts-fill"><path d="M17.3631 11.0453C18.767 9.65157 21.0432 9.65157 22.4471 11.0453C23.851 12.439 23.851 14.6987 22.4471 16.0924L17 21.5L11.5529 16.0924C10.149 14.6987 10.149 12.439 11.5529 11.0453C12.9568 9.65157 15.233 9.65157 16.6369 11.0453L16.9996 11.4051L17.3631 11.0453ZM19.2426 4.75736C20.1831 5.69977 20.7461 6.87453 20.9318 8.09485C19.5993 7.84749 18.1932 8.08543 17.0001 8.808C14.8491 7.50516 12.0056 7.7777 10.1439 9.62594C8.01293 11.7414 7.95374 15.1405 9.96628 17.3273L10.1439 17.5117L12.565 19.916L10.9999 21.485L2.52138 12.993C0.417048 10.637 0.495706 7.01901 2.75736 4.75736C5.02157 2.49315 8.64519 2.41687 11.001 4.52853C13.35 2.42 16.98 2.49 19.2426 4.75736Z"></path></symbol><symbol viewBox="0 0 24 24" id="heart-pulse-line"><path d="M16.5 3C19.5376 3 22 5.5 22 9C22 16 14.5 20 12 21.5C10.0226 20.3135 4.91699 17.563 2.86894 13.001L1 13V11L2.21045 11.0009C2.07425 10.3633 2 9.69651 2 9C2 5.5 4.5 3 7.5 3C9.35997 3 11 4 12 5C13 4 14.64 3 16.5 3ZM16.5 5C15.4241 5 14.2593 5.56911 13.4142 6.41421L12 7.82843L10.5858 6.41421C9.74068 5.56911 8.5759 5 7.5 5C5.55906 5 4 6.6565 4 9C4 9.68542 4.09035 10.3516 4.26658 11.0004L6.43381 11L8.5 7.55635L11.5 12.5563L12.4338 11H17V13H13.5662L11.5 16.4437L8.5 11.4437L7.56619 13L5.10789 13.0006C5.89727 14.3737 7.09304 15.6681 8.64514 16.9029C9.39001 17.4955 10.1845 18.0485 11.0661 18.6038C11.3646 18.7919 11.6611 18.9729 12 19.1752C12.3389 18.9729 12.6354 18.7919 12.9339 18.6038C13.8155 18.0485 14.61 17.4955 15.3549 16.9029C18.3337 14.533 20 11.9435 20 9C20 6.64076 18.463 5 16.5 5Z"></path></symbol><symbol viewBox="0 0 24 24" id="heart-pulse-fill"><path d="M16.5 3C19.5376 3 22 5.5 22 9C22 16 14.5 20 12 21.5C10.0224 20.3135 4.91625 17.5626 2.8685 13L7.56619 13L8.5 11.4437L11.5 16.4437L13.5662 13H17V11H12.4338L11.5 12.5563L8.5 7.55635L6.43381 11L2.21024 10.9999C2.07418 10.3626 2 9.69615 2 9C2 5.5 4.5 3 7.5 3C9.35997 3 11 4 12 5C13 4 14.64 3 16.5 3Z"></path></symbol><symbol viewBox="0 0 24 24" id="android-line"><path d="M19 13H5V20H19V13ZM19 11C19 7.13401 15.866 4 12 4C8.13401 4 5 7.13401 5 11H19ZM6.38231 3.9681C7.92199 2.73647 9.87499 2 12 2C14.125 2 16.078 2.73647 17.6177 3.9681L19.0711 2.51472L20.4853 3.92893L19.0319 5.38231C20.2635 6.92199 21 8.87499 21 11V21C21 21.5523 20.5523 22 20 22H4C3.44772 22 3 21.5523 3 21V11C3 8.87499 3.73647 6.92199 4.9681 5.38231L3.51472 3.92893L4.92893 2.51472L6.38231 3.9681ZM9 9C8.44772 9 8 8.55228 8 8C8 7.44772 8.44772 7 9 7C9.55228 7 10 7.44772 10 8C10 8.55228 9.55228 9 9 9ZM15 9C14.4477 9 14 8.55228 14 8C14 7.44772 14.4477 7 15 7C15.5523 7 16 7.44772 16 8C16 8.55228 15.5523 9 15 9Z"></path></symbol><symbol viewBox="0 0 24 24" id="android-fill"><path d="M6.38231 3.9681C7.92199 2.73647 9.87499 2 12 2C14.125 2 16.078 2.73647 17.6177 3.9681L19.0711 2.51472L20.4853 3.92893L19.0319 5.38231C20.2635 6.92199 21 8.87499 21 11V12H3V11C3 8.87499 3.73647 6.92199 4.9681 5.38231L3.51472 3.92893L4.92893 2.51472L6.38231 3.9681ZM3 14H21V21C21 21.5523 20.5523 22 20 22H4C3.44772 22 3 21.5523 3 21V14ZM9 9C9.55228 9 10 8.55228 10 8C10 7.44772 9.55228 7 9 7C8.44772 7 8 7.44772 8 8C8 8.55228 8.44772 9 9 9ZM15 9C15.5523 9 16 8.55228 16 8C16 7.44772 15.5523 7 15 7C14.4477 7 14 7.44772 14 8C14 8.55228 14.4477 9 15 9Z"></path></symbol><symbol viewBox="0 0 24 24" id="bootstrap-line"><path d="M1 11L1 13C1 13 3 13 3 17V18C3 19.6569 4.34315 21 6 21H18C19.6569 21 21 19.6569 21 18V17C21 13 23 13 23 13V11C23 11 21 11 21 7V6C21 4.34315 19.6569 3 18 3L6 3C4.34315 3 3 4.34315 3 6V7C3 11 1 11 1 11ZM20.6742 12C20.6446 12.0278 20.6151 12.0564 20.5858 12.0858C19.5784 13.0931 19 14.6917 19 17V18C19 18.5523 18.5523 19 18 19H6C5.44772 19 5 18.5523 5 18V17C5 14.6917 4.42157 13.0931 3.41421 12.0858C3.38486 12.0564 3.35539 12.0278 3.32582 12C3.35539 11.9722 3.38486 11.9436 3.41421 11.9142C4.42157 10.9069 5 9.30829 5 7V6C5 5.44772 5.44772 5 6 5L18 5C18.5523 5 19 5.44772 19 6V7C19 9.30829 19.5784 10.9069 20.5858 11.9142C20.6151 11.9436 20.6446 11.9722 20.6742 12ZM8.5 7V17H13.5C15.1569 17 16.5 15.6569 16.5 14C16.5 12.9377 15.9479 12.0044 15.115 11.4714C15.3601 11.0366 15.5 10.5347 15.5 10C15.5 8.34315 14.1569 7 12.5 7L8.5 7ZM10.5 11V9H12.5C13.0523 9 13.5 9.44772 13.5 10C13.5 10.5523 13.0523 11 12.5 11H10.5ZM10.5 13H13.5C14.0523 13 14.5 13.4477 14.5 14C14.5 14.5523 14.0523 15 13.5 15H10.5V13Z"></path></symbol><symbol viewBox="0 0 24 24" id="bootstrap-fill"><path d="M5.42333 3.03818C4.13949 3.03818 3.18953 4.16184 3.23206 5.38047C3.27286 6.55123 3.21985 8.0675 2.83811 9.30405C2.45523 10.5442 1.80769 11.3298 0.75 11.4307V12.5694C1.80769 12.6703 2.45523 13.4559 2.83811 14.696C3.21985 15.9326 3.27286 17.4489 3.23206 18.6196C3.18953 19.8381 4.13949 20.9619 5.42352 20.9619H18.5784C19.8622 20.9619 20.812 19.8382 20.7695 18.6196C20.7287 17.4489 20.7817 15.9326 21.1634 14.696C21.5465 13.4559 22.1923 12.6703 23.25 12.5694V11.4307C22.1923 11.3298 21.5465 10.5442 21.1634 9.30405C20.7817 8.06769 20.7287 6.55123 20.7695 5.38047C20.812 4.16203 19.8622 3.03818 18.5784 3.03818H5.42314H5.42333ZM16.0042 14.0714C16.0042 15.7493 14.7526 16.767 12.6756 16.767H9.13983C9.03869 16.767 8.94169 16.7268 8.87017 16.6553C8.79865 16.5838 8.75847 16.4868 8.75847 16.3856V7.61445C8.75847 7.51331 8.79865 7.41631 8.87017 7.34479C8.94169 7.27327 9.03869 7.23309 9.13983 7.23309H12.6554C14.3873 7.23309 15.5239 8.17123 15.5239 9.61161C15.5239 10.6226 14.7593 11.5277 13.7851 11.6862V11.739C15.1113 11.8845 16.0042 12.8028 16.0042 14.0714ZM12.29 8.44199H10.274V11.2896H11.972C13.2846 11.2896 14.0084 10.761 14.0084 9.81621C14.0084 8.93089 13.386 8.44199 12.29 8.44199ZM10.274 12.4195V15.5577H12.3642C13.7308 15.5577 14.4548 15.0093 14.4548 13.9787C14.4548 12.9479 13.7106 12.4193 12.2763 12.4193L10.274 12.4195Z"></path></symbol><symbol viewBox="0 0 24 24" id="chrome-line"><path d="M10.3645 19.8327L12.2941 16.4905C12.1969 16.4968 12.0988 16.5 12 16.5C10.3037 16.5 8.82656 15.5614 8.0597 14.1752L4.79459 8.51986C4.28545 9.57206 4 10.7527 4 12C4 15.8578 6.73064 19.0778 10.3645 19.8327ZM12.5897 19.9786C16.7326 19.6767 20 16.2199 20 12C20 11.1269 19.8601 10.2865 19.6016 9.5H15.7422C16.2209 10.215 16.5 11.0749 16.5 12C16.5 12.8477 16.2656 13.6406 15.8581 14.3175L12.5897 19.9786ZM14.1434 13.2875L14.1651 13.25C14.3782 12.8824 14.5 12.4554 14.5 12C14.5 10.6193 13.3807 9.5 12 9.5C10.6193 9.5 9.5 10.6193 9.5 12C9.5 12.4383 9.6128 12.8503 9.81094 13.2084L9.83494 13.25C10.2669 13.9973 11.0747 14.5 12 14.5C12.9098 14.5 13.7061 14.014 14.1434 13.2875ZM6.03522 6.66871L7.9635 10.0086C8.69821 8.52222 10.2297 7.5 12 7.5H18.6153C17.1753 5.38723 14.7497 4 12 4C9.62968 4 7.50014 5.03086 6.03522 6.66871ZM12 22C6.47715 22 2 17.5228 2 12C2 6.47715 6.47715 2 12 2C17.5228 2 22 6.47715 22 12C22 17.5228 17.5228 22 12 22Z"></path></symbol><symbol viewBox="0 0 24 24" id="chrome-fill"><path d="M9.82726 21.7633C5.34912 20.7712 2 16.7767 2 12C2 10.1779 2.48734 8.46958 3.33878 6.99834L7.62189 14.4169C8.47396 15.9571 10.1152 17 12 17C12.2023 17 12.4018 16.988 12.5978 16.9646L9.82726 21.7633ZM12 22L16.2868 14.5751C16.7396 13.8229 17 12.9419 17 12C17 10.8744 16.6281 9.83566 16.0004 9H21.5422C21.8396 9.94704 22 10.9548 22 12C22 17.5228 17.5228 22 12 22ZM14.5721 13.545C14.0473 14.4168 13.0917 15 12 15C10.8897 15 9.92024 14.3968 9.40149 13.5002L9.37313 13.4501C9.13535 13.0203 9 12.526 9 12C9 10.3431 10.3431 9 12 9C13.6569 9 15 10.3431 15 12C15 12.5465 14.8539 13.0589 14.5985 13.5002L14.5721 13.545ZM4.6322 5.23859C6.46008 3.24783 9.08432 2 12 2C15.7014 2 18.9331 4.01099 20.6622 7H12C9.93635 7 8.1647 8.25019 7.40112 10.0345L4.6322 5.23859Z"></path></symbol><symbol viewBox="0 0 24 24" id="instagram-line"><path d="M12.001 9C10.3436 9 9.00098 10.3431 9.00098 12C9.00098 13.6573 10.3441 15 12.001 15C13.6583 15 15.001 13.6569 15.001 12C15.001 10.3427 13.6579 9 12.001 9ZM12.001 7C14.7614 7 17.001 9.2371 17.001 12C17.001 14.7605 14.7639 17 12.001 17C9.24051 17 7.00098 14.7629 7.00098 12C7.00098 9.23953 9.23808 7 12.001 7ZM18.501 6.74915C18.501 7.43926 17.9402 7.99917 17.251 7.99917C16.5609 7.99917 16.001 7.4384 16.001 6.74915C16.001 6.0599 16.5617 5.5 17.251 5.5C17.9393 5.49913 18.501 6.0599 18.501 6.74915ZM12.001 4C9.5265 4 9.12318 4.00655 7.97227 4.0578C7.18815 4.09461 6.66253 4.20007 6.17416 4.38967C5.74016 4.55799 5.42709 4.75898 5.09352 5.09255C4.75867 5.4274 4.55804 5.73963 4.3904 6.17383C4.20036 6.66332 4.09493 7.18811 4.05878 7.97115C4.00703 9.0752 4.00098 9.46105 4.00098 12C4.00098 14.4745 4.00753 14.8778 4.05877 16.0286C4.0956 16.8124 4.2012 17.3388 4.39034 17.826C4.5591 18.2606 4.7605 18.5744 5.09246 18.9064C5.42863 19.2421 5.74179 19.4434 6.17187 19.6094C6.66619 19.8005 7.19148 19.9061 7.97212 19.9422C9.07618 19.9939 9.46203 20 12.001 20C14.4755 20 14.8788 19.9934 16.0296 19.9422C16.8117 19.9055 17.3385 19.7996 17.827 19.6106C18.2604 19.4423 18.5752 19.2402 18.9074 18.9085C19.2436 18.5718 19.4445 18.2594 19.6107 17.8283C19.8013 17.3358 19.9071 16.8098 19.9432 16.0289C19.9949 14.9248 20.001 14.5389 20.001 12C20.001 9.52552 19.9944 9.12221 19.9432 7.97137C19.9064 7.18906 19.8005 6.66149 19.6113 6.17318C19.4434 5.74038 19.2417 5.42635 18.9084 5.09255C18.573 4.75715 18.2616 4.55693 17.8271 4.38942C17.338 4.19954 16.8124 4.09396 16.0298 4.05781C14.9258 4.00605 14.5399 4 12.001 4ZM12.001 2C14.7176 2 15.0568 2.01 16.1235 2.06C17.1876 2.10917 17.9135 2.2775 18.551 2.525C19.2101 2.77917 19.7668 3.1225 20.3226 3.67833C20.8776 4.23417 21.221 4.7925 21.476 5.45C21.7226 6.08667 21.891 6.81333 21.941 7.8775C21.9885 8.94417 22.001 9.28333 22.001 12C22.001 14.7167 21.991 15.0558 21.941 16.1225C21.8918 17.1867 21.7226 17.9125 21.476 18.55C21.2218 19.2092 20.8776 19.7658 20.3226 20.3217C19.7668 20.8767 19.2076 21.22 18.551 21.475C17.9135 21.7217 17.1876 21.89 16.1235 21.94C15.0568 21.9875 14.7176 22 12.001 22C9.28431 22 8.94514 21.99 7.87848 21.94C6.81431 21.8908 6.08931 21.7217 5.45098 21.475C4.79264 21.2208 4.23514 20.8767 3.67931 20.3217C3.12348 19.7658 2.78098 19.2067 2.52598 18.55C2.27848 17.9125 2.11098 17.1867 2.06098 16.1225C2.01348 15.0558 2.00098 14.7167 2.00098 12C2.00098 9.28333 2.01098 8.94417 2.06098 7.8775C2.11014 6.8125 2.27848 6.0875 2.52598 5.45C2.78014 4.79167 3.12348 4.23417 3.67931 3.67833C4.23514 3.1225 4.79348 2.78 5.45098 2.525C6.08848 2.2775 6.81348 2.11 7.87848 2.06C8.94514 2.0125 9.28431 2 12.001 2Z"></path></symbol><symbol viewBox="0 0 24 24" id="meta-line"><path d="M20.9744 16.1635C20.6888 17.0545 20.199 17.5 19.5048 17.5C18.6273 17.5 17.7647 16.9735 16.917 15.9206C16.3283 15.1893 15.5026 13.7996 14.44 11.7515C13.984 10.8723 13.5611 10.0959 13.1714 9.42225C13.4809 8.93372 13.757 8.54177 13.9998 8.24641C14.957 7.08214 15.9587 6.5 17.0048 6.5C17.8397 6.5 18.635 7.03584 19.3907 8.10753C20.1673 9.20896 20.7114 10.5694 21.0228 12.1888C21.3292 13.782 21.3131 15.1069 20.9744 16.1635ZM12.0049 11.4296C12.2149 11.8151 12.4349 12.2294 12.6647 12.6725C13.7887 14.839 14.6869 16.3397 15.3591 17.1748C16.6071 18.7249 17.989 19.5 19.5048 19.5C20.3608 19.5 21.0931 19.2297 21.7019 18.6892C22.2267 18.2233 22.6191 17.5849 22.879 16.774C23.3216 15.3931 23.3576 13.7388 22.9868 11.8112C22.6212 9.90978 21.9673 8.29105 21.0252 6.95497C19.8712 5.31832 18.531 4.5 17.0048 4.5C15.3288 4.5 13.8121 5.32543 12.4549 6.97628C12.3132 7.14862 12.1632 7.34668 12.0049 7.57046C11.8466 7.34668 11.6966 7.14862 11.5548 6.97628C10.1976 5.32543 8.68102 4.5 7.005 4.5C5.4788 4.5 4.13867 5.31833 2.98462 6.95498C2.04252 8.29105 1.38864 9.90977 1.02298 11.8112C0.652277 13.7388 0.688225 15.3931 1.13083 16.774C1.39074 17.5849 1.78309 18.2233 2.30788 18.6892C2.91672 19.2297 3.6491 19.5 4.50502 19.5C6.02087 19.5 7.40276 18.7249 8.65069 17.1748C9.32296 16.3397 10.2211 14.839 11.345 12.6726C11.575 12.2294 11.7949 11.8151 12.0049 11.4296ZM10.8384 9.42226C10.4487 10.0959 10.0258 10.8723 9.56972 11.7515C8.50715 13.7996 7.6815 15.1893 7.09279 15.9206C6.24514 16.9735 5.38255 17.5 4.50502 17.5C3.81084 17.5 3.32096 17.0545 3.03539 16.1635C2.69674 15.1069 2.6806 13.782 2.98699 12.1888C3.29843 10.5694 3.84248 9.20896 4.61913 8.10752C5.37481 7.03584 6.1701 6.5 7.005 6.5C8.05111 6.5 9.05277 7.08214 10.01 8.24641C10.2528 8.54176 10.5289 8.93371 10.8384 9.42226Z"></path></symbol><symbol viewBox="0 0 24 24" id="meta-fill"><path d="M16.9197 4.5C15.0689 4.5 13.622 5.89404 12.3123 7.6649C10.5124 5.37323 9.00722 4.5 7.20593 4.5C3.53352 4.5 0.719727 9.27931 0.719727 14.3379C0.719727 17.5034 2.25116 19.5 4.81628 19.5C6.66249 19.5 7.99028 18.6296 10.3508 14.5034C10.3508 14.5034 11.3347 12.7658 12.0116 11.5689C12.2488 11.9518 12.4981 12.3639 12.7611 12.8069L13.868 14.669C16.0242 18.2772 17.2256 19.5 19.4025 19.5C21.9014 19.5 23.2921 17.4761 23.2921 14.2448C23.2921 8.94828 20.4149 4.5 16.9197 4.5ZM8.55076 13.3862C6.63697 16.3862 5.9749 17.0586 4.90938 17.0586C3.81283 17.0586 3.16111 16.0959 3.16111 14.3793C3.16111 10.7069 4.99214 6.95172 7.1749 6.95172C8.35692 6.95172 9.34471 7.63438 10.8577 9.80042C9.42105 12.0041 8.55076 13.3862 8.55076 13.3862ZM15.7737 13.0085L14.4502 10.8013C14.0921 10.2188 13.7489 9.6836 13.4177 9.19286C14.6105 7.35183 15.5944 6.43448 16.7646 6.43448C19.1956 6.43448 21.1404 10.0138 21.1404 14.4103C21.1404 16.0862 20.5915 17.0586 19.4542 17.0586C18.3641 17.0586 17.8434 16.3387 15.7737 13.0085Z"></path></symbol><symbol viewBox="0 0 24 24" id="treasure-map-line"><path d="M14.9352 7.20369L8.93524 4.20369L4 6.31879V18.9669L9.06476 16.7963L15.0648 19.7963L20 17.6812V5.03308L14.9352 7.20369ZM2 5L9 2L15 5L21.303 2.2987C21.5569 2.18992 21.8508 2.30749 21.9596 2.56131C21.9862 2.62355 22 2.69056 22 2.75827V19L15 22L9 19L2.69696 21.7013C2.44314 21.8101 2.14921 21.6925 2.04043 21.4387C2.01375 21.3765 2 21.3094 2 21.2417V5ZM6 11H8V13H6V11ZM10 11H12V13H10V11ZM15.9981 10.9374L17.2355 9.7L18.2962 10.7607L17.0588 11.9981L18.2962 13.2355L17.2355 14.2962L15.9981 13.0588L14.7607 14.2962L13.7 13.2355L14.9374 11.9981L13.7 10.7607L14.7607 9.7L15.9981 10.9374Z"></path></symbol><symbol viewBox="0 0 24 24" id="treasure-map-fill"><path d="M2 5L9 2L15 5L21.303 2.2987C21.5569 2.18992 21.8508 2.30749 21.9596 2.56131C21.9862 2.62355 22 2.69056 22 2.75827V19L15 22L9 19L2.69696 21.7013C2.44314 21.8101 2.14921 21.6925 2.04043 21.4387C2.01375 21.3765 2 21.3094 2 21.2417V5ZM6 11V13H8V11H6ZM10 11V13H12V11H10ZM16 10.9393L14.7626 9.7019L13.7019 10.7626L14.9393 12L13.7019 13.2374L14.7626 14.2981L16 13.0607L17.2374 14.2981L18.2981 13.2374L17.0607 12L18.2981 10.7626L17.2374 9.7019L16 10.9393Z"></path></symbol><symbol viewBox="0 0 24 24" id="facebook-box-line"><path d="M14 19H19V5H5V19H12V14H10V12H12V10.3458C12 9.00855 12.1392 8.52362 12.4007 8.03473C12.6622 7.54584 13.0458 7.16216 13.5347 6.9007C13.9174 6.69604 14.3922 6.57252 15.2217 6.51954C15.551 6.49851 15.9771 6.52533 16.5 6.6V8.5H16C15.0827 8.5 14.7042 8.54332 14.4779 8.66433C14.3376 8.73939 14.2394 8.83758 14.1643 8.97793C14.0433 9.20418 14 9.42853 14 10.3458V12H16.5L16 14H14V19ZM4 3H20C20.5523 3 21 3.44772 21 4V20C21 20.5523 20.5523 21 20 21H4C3.44772 21 3 20.5523 3 20V4C3 3.44772 3.44772 3 4 3Z"></path></symbol><symbol viewBox="0 0 24 24" id="twitter-x-fill"><path d="M18.2048 2.25H21.5128L14.2858 10.51L22.7878 21.75H16.1308L10.9168 14.933L4.95084 21.75H1.64084L9.37084 12.915L1.21484 2.25H8.04084L12.7538 8.481L18.2048 2.25ZM17.0438 19.77H18.8768L7.04484 4.126H5.07784L17.0438 19.77Z"></path></symbol></svg>